<svg width="31" height="15" viewBox="0 0 31 15" fill="none" xmlns="http://www.w3.org/2000/svg">
<path d="M2.82411 14.4671L0.504883 5.76539H4.7582L5.47756 8.81881L5.58585 9.28967L5.74095 8.81881L8.04321 2.23355H12.6087L15.0085 8.79929L15.1808 9.22425L15.2719 8.79929L17.4083 0H21.1446L17.3303 14.4671H12.5794L10.1406 7.99894L10.0577 7.7741L9.97477 7.99894L7.58472 14.4671H2.82411Z" fill="#4DC416"/>
<path d="M25.2949 1.46827C25.8922 1.04198 27.1232 0.82395 28.2004 1.84703M28.2004 1.84703C29.2776 2.87012 29.9619 2.18791 30.053 1.9083M28.2004 1.84703C28.5952 2.07164 29.1216 1.9083 29.3545 1.37949" stroke="#FF5500" stroke-width="0.495096"/>
<path fill-rule="evenodd" clip-rule="evenodd" d="M24.6886 0H17.5142V2.81307H24.6886V0ZM22.9721 2.42962C23.5286 2.42962 23.9797 1.9785 23.9797 1.42201C23.9797 0.865522 23.5286 0.4144 22.9721 0.4144C22.4156 0.4144 21.9645 0.865522 21.9645 1.42201C21.9645 1.9785 22.4156 2.42962 22.9721 2.42962Z" fill="#4DC416"/>
</svg>
