<svg width="871" height="889" viewBox="0 0 871 889" fill="none" xmlns="http://www.w3.org/2000/svg">
<g filter="url(#filter0_dd_1284_4371)">
<rect x="74" y="74" width="1072" height="1414" rx="65" fill="black"/>
<rect x="72" y="72" width="1076" height="1418" rx="67" stroke="url(#paint0_linear_1284_4371)" stroke-width="4"/>
</g>
<rect x="97" y="98" width="1024" height="1366" rx="45" fill="black"/>
<path d="M121.797 127.256C124.485 127.256 126.082 125.154 126.082 121.587C126.082 118.086 124.383 116.167 121.856 116.167C119.556 116.167 117.93 117.713 117.93 119.874C117.93 121.902 119.395 123.382 121.409 123.382C122.647 123.382 123.65 122.811 124.148 121.807H124.273C124.251 124.29 123.365 125.711 121.819 125.711C120.911 125.711 120.186 125.213 119.959 124.407H118.077C118.384 126.128 119.864 127.256 121.797 127.256ZM121.863 121.924C120.633 121.924 119.783 121.06 119.783 119.815C119.783 118.621 120.677 117.706 121.871 117.706C123.064 117.706 123.958 118.636 123.958 119.852C123.958 121.053 123.086 121.924 121.863 121.924ZM129.1 120.159C129.796 120.159 130.272 119.676 130.272 119.024C130.272 118.372 129.796 117.889 129.1 117.889C128.411 117.889 127.928 118.372 127.928 119.024C127.928 119.676 128.411 120.159 129.1 120.159ZM129.1 125.535C129.796 125.535 130.272 125.044 130.272 124.4C130.272 123.748 129.796 123.265 129.1 123.265C128.411 123.265 127.928 123.748 127.928 124.4C127.928 125.044 128.411 125.535 129.1 125.535ZM137.274 127H139.083V124.971H140.511V123.411H139.083V116.431H136.417C134.982 118.614 133.48 121.045 132.11 123.426V124.971H137.274V127ZM133.861 123.345C134.894 121.551 136.117 119.595 137.201 117.94H137.303V123.455H133.861V123.345ZM144.54 127H146.43V116.431H144.547L141.786 118.372V120.152L144.415 118.292H144.54V127ZM159.848 127H161.877L158.12 116.431H155.996L152.246 127H154.157L155.065 124.268H158.955L159.848 127ZM156.955 118.416H157.08L158.515 122.811H155.505L156.955 118.416ZM174.306 127V116.431H172.095L168.916 124.275H168.784L165.605 116.431H163.393V127H165.151V119.507H165.254L168.176 126.67H169.524L172.446 119.507H172.549V127H174.306Z" fill="white"/>
<rect x="97" y="98" width="1024" height="1366" rx="45" fill="url(#paint1_linear_1284_4371)" fill-opacity="0.25" style="mix-blend-mode:screen"/>
<circle cx="609" cy="86" r="6" fill="black"/>
<circle cx="609" cy="86" r="6" fill="black"/>
<circle cx="609" cy="86" r="6" fill="black"/>
<circle cx="609" cy="86" r="6" fill="black"/>
<circle opacity="0.15" cx="609" cy="85.9992" r="3.6" fill="white"/>
<defs>
<filter id="filter0_dd_1284_4371" x="0" y="0" width="1380" height="1722" filterUnits="userSpaceOnUse" color-interpolation-filters="sRGB">
<feFlood flood-opacity="0" result="BackgroundImageFix"/>
<feColorMatrix in="SourceAlpha" type="matrix" values="0 0 0 0 0 0 0 0 0 0 0 0 0 0 0 0 0 0 127 0" result="hardAlpha"/>
<feOffset dx="80" dy="80"/>
<feGaussianBlur stdDeviation="75"/>
<feColorMatrix type="matrix" values="0 0 0 0 0 0 0 0 0 0 0 0 0 0 0 0 0 0 0.25 0"/>
<feBlend mode="normal" in2="BackgroundImageFix" result="effect1_dropShadow_1284_4371"/>
<feColorMatrix in="SourceAlpha" type="matrix" values="0 0 0 0 0 0 0 0 0 0 0 0 0 0 0 0 0 0 127 0" result="hardAlpha"/>
<feOffset dx="20" dy="20"/>
<feGaussianBlur stdDeviation="25"/>
<feColorMatrix type="matrix" values="0 0 0 0 0 0 0 0 0 0 0 0 0 0 0 0 0 0 0.35 0"/>
<feBlend mode="normal" in2="effect1_dropShadow_1284_4371" result="effect2_dropShadow_1284_4371"/>
<feBlend mode="normal" in="SourceGraphic" in2="effect2_dropShadow_1284_4371" result="shape"/>
</filter>
<linearGradient id="paint0_linear_1284_4371" x1="74" y1="74" x2="817.165" y2="499.586" gradientUnits="userSpaceOnUse">
<stop stop-color="#D7D7D7"/>
<stop offset="1" stop-color="#515151"/>
</linearGradient>
<linearGradient id="paint1_linear_1284_4371" x1="106.366" y1="105.707" x2="632.562" y2="956.9" gradientUnits="userSpaceOnUse">
<stop stop-color="white"/>
<stop offset="0.645833" stop-color="white" stop-opacity="0"/>
</linearGradient>
</defs>
</svg>
