<svg width="166" height="54" viewBox="0 0 166 54" fill="none" xmlns="http://www.w3.org/2000/svg">
<path d="M61.2875 34.5492L70.5212 34.6183V35.2631C70.5212 36.2455 70.928 36.9133 71.7416 37.2664C72.5552 37.6194 73.6912 37.796 75.1495 37.796C76.6846 37.796 77.7592 37.6194 78.3732 37.2664C79.0026 36.9133 79.3173 36.3914 79.3173 35.7006C79.3173 34.933 78.9336 34.365 78.166 33.9966C77.4138 33.6128 75.4105 33.1907 72.1561 32.7301C68.3183 32.2082 65.747 31.2411 64.4421 29.8288C63.1373 28.4011 62.4849 26.5974 62.4849 24.4175C62.4849 21.7464 63.6516 19.6817 65.9849 18.2234C68.3336 16.765 71.565 16.0358 75.6791 16.0358C79.7472 16.0358 82.9709 16.8648 85.3503 18.5227C87.7297 20.1806 88.9118 22.2607 88.8964 24.7629V25.3386H79.6858V24.809C79.6858 23.8879 79.3404 23.1894 78.6496 22.7136C77.9741 22.2223 76.9379 21.9767 75.541 21.9767C74.1747 21.9767 73.1999 22.1302 72.6166 22.4372C72.0486 22.7443 71.7646 23.2125 71.7646 23.8419C71.7646 24.502 72.064 25.0546 72.6626 25.4998C73.2613 25.945 75.2416 26.3901 78.6035 26.8353C82.4259 27.2959 85.1124 28.2016 86.6628 29.5525C88.2133 30.9034 88.9885 32.6994 88.9885 34.9407C88.9885 37.7346 87.7988 39.8914 85.4194 41.4112C83.0553 42.9156 79.6704 43.6678 75.2647 43.6678C70.9203 43.6678 67.5124 42.9309 65.0408 41.4572C62.5693 39.9835 61.3182 37.8344 61.2875 35.0098V34.5492ZM91.3142 34.5492L100.548 34.6183V35.2631C100.548 36.2455 100.955 36.9133 101.768 37.2664C102.582 37.6194 103.718 37.796 105.176 37.796C106.711 37.796 107.786 37.6194 108.4 37.2664C109.029 36.9133 109.344 36.3914 109.344 35.7006C109.344 34.933 108.96 34.365 108.193 33.9966C107.441 33.6128 105.437 33.1907 102.183 32.7301C98.345 32.2082 95.7737 31.2411 94.4688 29.8288C93.164 28.4011 92.5116 26.5974 92.5116 24.4175C92.5116 21.7464 93.6783 19.6817 96.0116 18.2234C98.3603 16.765 101.592 16.0358 105.706 16.0358C109.774 16.0358 112.998 16.8648 115.377 18.5227C117.756 20.1806 118.938 22.2607 118.923 24.7629V25.3386H109.712V24.809C109.712 23.8879 109.367 23.1894 108.676 22.7136C108.001 22.2223 106.965 21.9767 105.568 21.9767C104.201 21.9767 103.227 22.1302 102.643 22.4372C102.075 22.7443 101.791 23.2125 101.791 23.8419C101.791 24.502 102.091 25.0546 102.689 25.4998C103.288 25.945 105.268 26.3901 108.63 26.8353C112.453 27.2959 115.139 28.2016 116.69 29.5525C118.24 30.9034 119.015 32.6994 119.015 34.9407C119.015 37.7346 117.826 39.8914 115.446 41.4112C113.082 42.9156 109.697 43.6678 105.291 43.6678C100.947 43.6678 97.5391 42.9309 95.0675 41.4572C92.596 39.9835 91.3449 37.8344 91.3142 35.0098V34.5492ZM122.538 43V8.22982H132.348V43H122.538Z" fill="white"/>
<rect x="48.6992" y="19.6255" width="9.84936" height="23.6385" fill="white"/>
<path d="M5.47435 43.2593L0 22.7196H10.0396L11.7376 29.9269L11.9932 31.0383L12.3593 29.9269L17.7936 14.383H28.5701L34.2346 29.8808L34.6413 30.8839L34.8563 29.8808L39.8992 9.11084H48.7183L39.7149 43.2593H28.501L22.7443 27.9917L22.5486 27.461L22.3529 27.9917L16.7114 43.2593H5.47435Z" fill="white"/>
<path d="M58.5149 12.5771C59.9248 11.5709 62.8305 11.0562 65.373 13.4711M65.373 13.4711C67.9156 15.886 69.5309 14.2757 69.746 13.6157M65.373 13.4711C66.305 14.0013 67.5476 13.6157 68.0972 12.3675" stroke="#FF5500" stroke-width="1.16863"/>
<path fill-rule="evenodd" clip-rule="evenodd" d="M57.084 9.11084H40.1494V15.7509H57.084V9.11084ZM53.0317 14.8453C54.3452 14.8453 55.4101 13.7805 55.4101 12.4669C55.4101 11.1534 54.3452 10.0886 53.0317 10.0886C51.7182 10.0886 50.6533 11.1534 50.6533 12.4669C50.6533 13.7805 51.7182 14.8453 53.0317 14.8453Z" fill="white"/>
<path d="M137.17 52.8627L137.262 46.185C137.784 46.3078 138.36 46.4076 138.989 46.4843C139.619 46.5611 140.225 46.5995 140.809 46.5995C142.144 46.5995 143.249 46.4997 144.124 46.3001C144.999 46.1006 145.521 45.8473 145.69 45.5403L145.874 43.0073L134.729 17.1484H144.93L150.18 30.6651L150.894 32.5145L151.608 30.6651L156.996 17.1484H166L154.601 45.0337C153.281 48.0271 151.593 50.1686 149.536 51.4581C147.494 52.7476 145.053 53.3923 142.213 53.3923C141.169 53.3923 140.218 53.354 139.358 53.2772C138.514 53.2004 137.784 53.0623 137.17 52.8627Z" fill="white"/>
</svg>
