<svg width="40" height="40" viewBox="0 0 40 40" fill="none" xmlns="http://www.w3.org/2000/svg">
<path d="M27.6521 12.55C27.6596 12.55 27.6696 12.55 27.6796 12.55C27.9409 12.55 28.1834 12.6313 28.3821 12.7713L28.3784 12.7688C28.5234 12.895 28.6209 13.0725 28.6446 13.2725V13.2763C28.6696 13.4288 28.6834 13.6038 28.6834 13.7825C28.6834 13.8638 28.6809 13.9438 28.6746 14.0238V14.0125C28.3934 16.9738 27.1734 24.155 26.5534 27.47C26.2909 28.8738 25.7746 29.3438 25.2746 29.3888C24.1884 29.49 23.3634 28.6713 22.3109 27.9813C20.6634 26.9 19.7321 26.2275 18.1334 25.1737C16.2846 23.9575 17.4834 23.2862 18.5359 22.1937C18.8121 21.9062 23.6009 17.55 23.6946 17.155C23.6996 17.1313 23.7021 17.105 23.7021 17.0775C23.7021 16.98 23.6659 16.8912 23.6071 16.8237C23.5421 16.7812 23.4609 16.7575 23.3759 16.7575C23.3196 16.7575 23.2659 16.7688 23.2159 16.7875L23.2184 16.7863C23.0534 16.8238 20.4217 18.5629 15.3234 22.0038C14.7671 22.4425 14.0646 22.72 13.2996 22.7525H13.2921C12.2084 22.6213 11.2246 22.38 10.2909 22.0363L10.3834 22.0662C9.21086 21.6838 8.27961 21.4825 8.35961 20.835C8.40211 20.4983 8.86628 20.1537 9.75211 19.8013C15.2088 17.4237 18.8475 15.8567 20.6684 15.1C22.6771 14.0338 25.0059 13.1562 27.4546 12.5875L27.6509 12.5487L27.6521 12.55ZM19.9121 1.28125C9.53461 1.30625 1.13086 9.725 1.13086 20.1062C1.13086 30.5025 9.55836 38.9313 19.9559 38.9313C30.3534 38.9313 38.7809 30.5037 38.7809 20.1062C38.7809 9.725 30.3771 1.30625 20.0021 1.28125H19.9996C19.9704 1.28125 19.9413 1.28125 19.9121 1.28125Z" fill="#E5ECFF"/>
</svg>
